<svg xmlns="http://www.w3.org/2000/svg" viewBox="0 0 401.91 422.66">
<defs>
<style>
.cls-1{font-size:30px;letter-spacing:0.05em;}
.cls-1,
.cls-4{fill:#000000;}
.cls-1,
.cls-5{font-family:Lato-Regular, Lato;}
.cls-2{letter-spacing:0.02em;}
.cls-3{letter-spacing:-0.04em;}
.cls-5{font-size:400px;letter-spacing:-0.06em;}
</style>
</defs>
<g id="Layer_2" data-name="Layer 2">
<g id="Layer_1-2" data-name="Layer 1">
<text class="cls-1" transform="translate(3.96 417.18)">
SMA
<tspan class="cls-2" x="68.4" y="0">
R
</tspan>
<tspan class="cls-3" x="88.44" y="0">
T
</tspan>
<tspan x="104.94" y="0" xml:space="preserve">
-STEPS  FINANCIAL
</tspan>
</text>
<path class="cls-4" d="M170,100.17a15.56,15.56,0,0,1-3.8,4.5,8.44,8.44,0,0,1-5.2,1.5q-3.41,0-7.9-3.4a124.51,124.51,0,0,0-11.4-7.5,92.87,92.87,0,0,0-16.6-7.5q-9.7-3.4-23.5-3.4a69.58,69.58,0,0,0-23,3.5,48.85,48.85,0,0,0-16.7,9.5,39,39,0,0,0-10.1,14.1A44.68,44.68,0,0,0,48.4,129q0,12,5.9,19.9a50.67,50.67,0,0,0,15.6,13.5,119.61,119.61,0,0,0,22,9.7q12.3,4.1,25.2,8.5t25.2,9.9a88.79,88.79,0,0,1,22,13.9A63.31,63.31,0,0,1,179.9,225q5.9,12.19,5.9,30a96.7,96.7,0,0,1-6.4,35.3A81.4,81.4,0,0,1,160.7,319a87.61,87.61,0,0,1-30.2,19.2q-17.9,7-40.7,7-27.79,0-50.7-10.1A118.94,118.94,0,0,1,0,307.77l11.2-18.4a14.77,14.77,0,0,1,3.9-3.7,9.12,9.12,0,0,1,5.1-1.5q4.2,0,9.6,4.5a160,160,0,0,0,13.5,9.9,103,103,0,0,0,19.6,9.9Q74.4,313,91,313a74,74,0,0,0,24.6-3.8,52.2,52.2,0,0,0,18.3-10.7A46.4,46.4,0,0,0,145.4,282a55.06,55.06,0,0,0,4-21.4q0-13-5.9-21.3a48.75,48.75,0,0,0-15.5-13.9,108.53,108.53,0,0,0-21.9-9.5l-25.2-8a253.29,253.29,0,0,1-25.2-9.5,82,82,0,0,1-21.9-14,64.25,64.25,0,0,1-15.5-21.5Q12.4,150,12.4,131a76.41,76.41,0,0,1,23-54.6,83,83,0,0,1,27.7-17.6q16.5-6.6,37.9-6.6,24,0,43.8,7.6a101,101,0,0,1,34.6,22Z"/>
<text class="cls-5" transform="translate(190.52 343.3)">F</text>
</g>
</g>
</svg>